# xmcd
#
# Track frame offsets: 
#        150
#        13352
#        28895
#        42172
#        58915
#        77762
#        92552
#        105055
#        125125
#        141812
#        152527
#
# Disc length: 2177 seconds
#
# Revision: 3
# Processed by: cddbd v1.5.2PL0 Copyright (c) Steve Scherf et al.
# Submitted via: ExactAudioCopy v0.99pb4
#
DISCID=8b087f0b
DTITLE=Alison Krauss - Too Late To Cry
DYEAR=1987
DGENRE=Bluegrass
TTITLE0=Too Late to Cry
TTITLE1=Foolish Heart
TTITLE2=Song For Life
TTITLE3=Dusty Miller
TTITLE4=If I Give My Heart
TTITLE5=In Your Eyes
TTITLE6=Don't Follow Me
TTITLE7=Gentle River
TTITLE8=On the Borderline
TTITLE9=Forgotten Pictures
TTITLE10=Sleep On
EXTD=
EXTT0=
EXTT1=
EXTT2=
EXTT3=
EXTT4=
EXTT5=
EXTT6=
EXTT7=
EXTT8=
EXTT9=
EXTT10=
PLAYORDER=
